<?xml version="1.0" encoding="iso-8859-1"?>
<!-- Generator: Adobe Illustrator 19.0.0, SVG Export Plug-In . SVG Version: 6.00 Build 0)  -->
<svg version="1.1" id="Layer_1" xmlns="http://www.w3.org/2000/svg" xmlns:xlink="http://www.w3.org/1999/xlink" x="0px" y="0px"
	 viewBox="0 0 473.931 473.931" style="enable-background:new 0 0 473.931 473.931;" xml:space="preserve">
<circle style="fill:#EFC849;" cx="236.966" cy="236.966" r="236.966"/>
<path style="fill:#E7E7E7;" d="M263.828,288.018c0,6.256-5.066,11.319-11.319,11.319H122.307c-6.249,0-11.319-5.066-11.319-11.319
	V106.876c0-6.256,5.07-11.319,11.319-11.319h130.198c6.252,0,11.319,5.066,11.319,11.319v181.142H263.828z"/>
<g>
	<path style="fill:#C9C9C8;" d="M247.899,144.892c0,1.949-1.583,3.528-3.532,3.528H131.295c-1.949,0-3.532-1.579-3.532-3.528l0,0
		c0-1.949,1.583-3.536,3.532-3.536h113.072C246.316,141.356,247.899,142.943,247.899,144.892L247.899,144.892z"/>
	<path style="fill:#C9C9C8;" d="M247.899,163.444c0,1.949-1.583,3.536-3.532,3.536H131.295c-1.949,0-3.532-1.587-3.532-3.536l0,0
		c0-1.949,1.583-3.536,3.532-3.536h113.072C246.316,159.904,247.899,161.491,247.899,163.444L247.899,163.444z"/>
	<path style="fill:#C9C9C8;" d="M247.899,126.337c0,1.949-1.583,3.536-3.532,3.536H131.295c-1.949,0-3.532-1.587-3.532-3.536l0,0
		c0-1.949,1.583-3.528,3.532-3.528h113.072C246.316,122.808,247.899,124.387,247.899,126.337L247.899,126.337z"/>
	<path style="fill:#C9C9C8;" d="M247.899,181.992c0,1.957-1.583,3.536-3.532,3.536H131.295c-1.949,0-3.532-1.579-3.532-3.536l0,0
		c0-1.949,1.583-3.528,3.532-3.528h113.072C246.316,178.46,247.899,180.039,247.899,181.992L247.899,181.992z"/>
	<path style="fill:#C9C9C8;" d="M247.899,199.66c0,1.949-1.583,3.536-3.532,3.536H131.295c-1.949,0-3.532-1.587-3.532-3.536l0,0
		c0-1.949,1.583-3.536,3.532-3.536h113.072C246.316,196.124,247.899,197.711,247.899,199.66L247.899,199.66z"/>
	<path style="fill:#C9C9C8;" d="M247.899,218.208c0,1.949-1.583,3.536-3.532,3.536H131.295c-1.949,0-3.532-1.587-3.532-3.536l0,0
		c0-1.949,1.583-3.528,3.532-3.528h113.072C246.316,214.68,247.899,216.259,247.899,218.208L247.899,218.208z"/>
</g>
<path style="fill:#F3F4F5;" d="M381.693,319.823c0,6.256-5.066,11.319-11.319,11.319H240.172c-6.249,0-11.319-5.066-11.319-11.319
	V138.681c0-6.256,5.07-11.319,11.319-11.319h130.198c6.252,0,11.319,5.066,11.319,11.319v181.142H381.693z"/>
<g>
	<path style="fill:#C9C9C8;" d="M365.765,176.697c0,1.949-1.583,3.528-3.532,3.528H249.16c-1.949,0-3.532-1.579-3.532-3.528l0,0
		c0-1.949,1.583-3.536,3.532-3.536h113.072C364.182,173.161,365.765,174.748,365.765,176.697L365.765,176.697z"/>
	<path style="fill:#C9C9C8;" d="M365.765,195.249c0,1.949-1.583,3.536-3.532,3.536H249.16c-1.949,0-3.532-1.587-3.532-3.536l0,0
		c0-1.949,1.583-3.536,3.532-3.536h113.072C364.182,191.709,365.765,193.296,365.765,195.249L365.765,195.249z"/>
	<path style="fill:#C9C9C8;" d="M365.765,158.142c0,1.949-1.583,3.536-3.532,3.536H249.16c-1.949,0-3.532-1.587-3.532-3.536l0,0
		c0-1.949,1.583-3.528,3.532-3.528h113.072C364.182,154.613,365.765,156.192,365.765,158.142L365.765,158.142z"/>
	<path style="fill:#C9C9C8;" d="M365.765,213.797c0,1.957-1.583,3.536-3.532,3.536H249.16c-1.949,0-3.532-1.579-3.532-3.536l0,0
		c0-1.949,1.583-3.528,3.532-3.528h113.072C364.182,210.264,365.765,211.844,365.765,213.797L365.765,213.797z"/>
	<path style="fill:#C9C9C8;" d="M365.765,231.465c0,1.949-1.583,3.536-3.532,3.536H249.16c-1.949,0-3.532-1.587-3.532-3.536l0,0
		c0-1.949,1.583-3.536,3.532-3.536h113.072C364.182,227.929,365.765,229.516,365.765,231.465L365.765,231.465z"/>
	<path style="fill:#C9C9C8;" d="M365.765,250.017c0,1.949-1.583,3.536-3.532,3.536H249.16c-1.949,0-3.532-1.587-3.532-3.536l0,0
		c0-1.949,1.583-3.528,3.532-3.528h113.072C364.182,246.485,365.765,248.064,365.765,250.017L365.765,250.017z"/>
</g>
<path style="fill:#F5F5F5;" d="M181.621,179.653c-6.252,0-11.319,5.07-11.319,11.319v181.142c0,6.256,5.066,11.326,11.319,11.326
	H311.82c6.252,0,11.319-5.07,11.319-11.326V232.079l-54.574-52.426H181.621z"/>
<path style="fill:#E1E1E1;" d="M323.138,232.079h-43.255c-6.252,0-11.319-5.066-11.319-11.319v-41.107L323.138,232.079z"/>
<g>
	<path style="fill:#C9C9C8;" d="M307.21,247.547c0,1.949-1.583,3.528-3.532,3.528H190.605c-1.949,0-3.536-1.579-3.536-3.528l0,0
		c0-1.949,1.587-3.536,3.536-3.536h113.072C305.631,244.008,307.21,245.594,307.21,247.547L307.21,247.547z"/>
	<path style="fill:#C9C9C8;" d="M307.21,266.095c0,1.949-1.583,3.536-3.532,3.536H190.605c-1.949,0-3.536-1.587-3.536-3.536l0,0
		c0-1.949,1.587-3.536,3.536-3.536h113.072C305.631,262.556,307.21,264.142,307.21,266.095L307.21,266.095z"/>
	<path style="fill:#C9C9C8;" d="M307.21,283.756c0,1.949-1.583,3.536-3.532,3.536H190.605c-1.949,0-3.536-1.587-3.536-3.536l0,0
		c0-1.949,1.587-3.529,3.536-3.529h113.072C305.631,280.228,307.21,281.807,307.21,283.756L307.21,283.756z"/>
	<path style="fill:#C9C9C8;" d="M307.21,302.312c0,1.949-1.583,3.529-3.532,3.529H190.605c-1.949,0-3.536-1.579-3.536-3.529l0,0
		c0-1.949,1.587-3.536,3.536-3.536h113.072C305.631,298.776,307.21,300.362,307.21,302.312L307.21,302.312z"/>
	<path style="fill:#C9C9C8;" d="M249.796,317.331h-59.191c-1.949,0-3.536,1.579-3.536,3.528c0,1.949,1.587,3.536,3.536,3.536h59.187
		c1.949,0,3.532-1.587,3.532-3.536C253.325,318.91,251.746,317.331,249.796,317.331z"/>
</g>
<g>
</g>
<g>
</g>
<g>
</g>
<g>
</g>
<g>
</g>
<g>
</g>
<g>
</g>
<g>
</g>
<g>
</g>
<g>
</g>
<g>
</g>
<g>
</g>
<g>
</g>
<g>
</g>
<g>
</g>
</svg>
