<?xml version="1.0" encoding="utf-8"?>
<!-- Generator: Adobe Illustrator 22.0.1, SVG Export Plug-In . SVG Version: 6.00 Build 0)  -->
<svg version="1.1" id="Layer_1" xmlns="http://www.w3.org/2000/svg" xmlns:xlink="http://www.w3.org/1999/xlink" x="0px" y="0px"
	 viewBox="0 0 200 50" enable-background="new 0 0 200 50" xml:space="preserve">
<path fill="#FFFFFF" d="M16.075,36.684h-6.5l6.26-30.18H4.647l1.092-5.46h28.902l-1.119,5.46H22.335L16.075,36.684z"/>
<path fill="#FFFFFF" d="M32.36,37.35c-1.705,0-3.166-0.192-4.383-0.573c-1.217-0.382-2.216-0.919-2.997-1.612
	c-0.782-0.692-1.354-1.522-1.718-2.49c-0.364-0.967-0.546-2.028-0.546-3.183c0-0.374,0.03-0.8,0.093-1.279
	c0.061-0.479,0.164-1.092,0.306-1.837l3.196-15.503h6.286l-3.25,15.717c-0.09,0.426-0.151,0.821-0.186,1.185
	c-0.036,0.363-0.053,0.697-0.053,0.998c0,1.065,0.294,1.901,0.879,2.504c0.586,0.603,1.536,0.905,2.85,0.905
	c0.923,0,1.718-0.128,2.384-0.386c0.665-0.257,1.229-0.63,1.691-1.119c0.461-0.488,0.839-1.083,1.132-1.784
	c0.294-0.702,0.528-1.488,0.705-2.358l3.25-15.663h6.286l-3.595,17.394c-0.249,1.172-0.636,2.304-1.159,3.396
	c-0.524,1.092-1.265,2.06-2.224,2.904c-0.959,0.843-2.166,1.518-3.623,2.024C36.231,37.097,34.455,37.35,32.36,37.35z"/>
<path fill="#FFFFFF" d="M67.448,16.28c-0.763-0.177-1.501-0.266-2.211-0.266c-0.639,0-1.288,0.071-1.945,0.213
	c-0.657,0.142-1.297,0.373-1.917,0.693c-0.622,0.319-1.209,0.741-1.758,1.265c-0.551,0.524-1.031,1.177-1.438,1.958
	c-0.196,0.373-0.387,0.826-0.573,1.358c-0.186,0.533-0.377,1.27-0.573,2.211l-2.691,12.972h-6.286l5.354-25.811h5.355v3.249h0.106
	c1.013-1.225,2.14-2.179,3.383-2.864c1.244-0.683,2.7-1.025,4.369-1.025c0.657,0,1.341,0.053,2.052,0.159L67.448,16.28z"/>
<path fill="#EB8833" d="M83.665,18.87L67.593,36.684h-7.938l16.542-18.646L68.125,1.043h6.953l5.941,12.6L83.665,18.87z"/>
<path fill="#EB8833" d="M85.03,21.209l7.255,15.474h-6.978l-4.76-10.406L85.03,21.209z"/>
<path fill="#EB8833" d="M82.868,11.792l9.258-10.75h7.965L85.771,17.279L82.868,11.792z"/>
<path fill="#FFFFFF" d="M114.318,10.233c1.12,0,2.14,0.226,3.065,0.679c0.922,0.453,1.718,1.079,2.383,1.878
	c0.666,0.799,1.181,1.776,1.546,2.93c0.363,1.154,0.545,2.442,0.545,3.862c0,1.35-0.133,2.735-0.399,4.156
	c-0.267,1.421-0.662,2.788-1.185,4.101c-0.524,1.315-1.168,2.549-1.932,3.703c-0.763,1.155-1.647,2.163-2.649,3.024
	c-1.004,0.861-2.131,1.54-3.383,2.037c-1.252,0.496-2.589,0.746-4.009,0.746c-1.137,0-2.167-0.17-3.09-0.506
	c-0.923-0.337-1.705-0.782-2.344-1.332h-0.107L99.934,49.07h-6.286l7.912-38.197h5.407v3.249h0.107
	c0.374-0.496,0.803-0.981,1.291-1.451c0.489-0.471,1.035-0.883,1.639-1.239c0.603-0.355,1.26-0.643,1.971-0.865
	C112.685,10.344,113.467,10.233,114.318,10.233z M103.744,30.69c0.479,0.427,1.047,0.782,1.705,1.066
	c0.656,0.284,1.394,0.426,2.21,0.426c0.8,0,1.554-0.177,2.264-0.533c0.71-0.355,1.354-0.843,1.932-1.466
	c0.577-0.622,1.092-1.346,1.545-2.171c0.453-0.826,0.84-1.705,1.159-2.638c0.32-0.932,0.56-1.891,0.719-2.877
	c0.16-0.985,0.239-1.948,0.239-2.89c0-1.279-0.239-2.299-0.719-3.063c-0.48-0.763-1.225-1.145-2.237-1.145
	c-0.889,0-1.816,0.306-2.784,0.919s-1.843,1.506-2.623,2.678c-0.462,0.693-0.87,1.491-1.225,2.398
	c-0.355,0.906-0.658,1.944-0.906,3.117L103.744,30.69z"/>
<path fill="#FFFFFF" d="M146.894,17.292c0,1.438-0.352,2.73-1.052,3.876c-0.701,1.145-1.735,2.123-3.103,2.93
	c-1.369,0.808-3.055,1.426-5.063,1.851c-2.006,0.427-4.314,0.639-6.926,0.639c-0.301,0-0.684-0.009-1.145-0.027v0.159
	c0,0.941,0.138,1.763,0.414,2.464c0.274,0.7,0.675,1.273,1.199,1.718c0.524,0.444,1.159,0.768,1.905,0.972
	c0.745,0.205,1.58,0.306,2.504,0.306c1.385,0,2.84-0.168,4.368-0.506c1.528-0.337,2.859-0.79,3.995-1.358l-1.145,5.54
	c-1.101,0.444-2.357,0.803-3.768,1.079c-1.411,0.275-2.918,0.414-4.516,0.414c-1.9,0-3.552-0.257-4.954-0.773
	c-1.403-0.516-2.561-1.239-3.475-2.172c-0.915-0.933-1.594-2.038-2.038-3.316c-0.444-1.279-0.665-2.691-0.665-4.235
	c0-1.367,0.141-2.725,0.425-4.076c0.285-1.349,0.702-2.641,1.252-3.876c0.551-1.234,1.234-2.379,2.051-3.436
	c0.816-1.056,1.763-1.971,2.838-2.743c1.074-0.773,2.278-1.381,3.609-1.825c1.331-0.443,2.779-0.666,4.342-0.666
	c1.367,0,2.601,0.169,3.702,0.506c1.101,0.337,2.038,0.813,2.811,1.426c0.773,0.613,1.371,1.354,1.797,2.224
	C146.68,15.259,146.894,16.227,146.894,17.292z M140.554,17.292c0-0.586-0.231-1.092-0.693-1.519
	c-0.462-0.426-1.164-0.639-2.105-0.639c-0.71,0-1.434,0.142-2.17,0.426c-0.738,0.285-1.43,0.706-2.078,1.265
	c-0.649,0.559-1.23,1.244-1.745,2.051c-0.516,0.808-0.924,1.736-1.225,2.784c1.882,0,3.462-0.124,4.741-0.373
	c1.279-0.248,2.308-0.577,3.09-0.985c0.78-0.408,1.34-0.875,1.678-1.399C140.385,18.38,140.554,17.843,140.554,17.292z"/>
<path fill="#FFFFFF" d="M165.611,16.28c-0.764-0.177-1.501-0.266-2.212-0.266c-0.638,0-1.287,0.071-1.944,0.213
	c-0.657,0.142-1.296,0.373-1.918,0.693c-0.622,0.32-1.208,0.741-1.758,1.265c-0.551,0.524-1.03,1.177-1.439,1.958
	c-0.195,0.373-0.385,0.826-0.573,1.358c-0.186,0.533-0.377,1.27-0.574,2.211l-2.689,12.972h-6.287l5.354-25.811h5.355v3.249h0.107
	c1.012-1.225,2.139-2.179,3.383-2.864c1.243-0.683,2.699-1.025,4.369-1.025c0.656,0,1.34,0.053,2.05,0.159L165.611,16.28z"/>
<path fill="#FFFFFF" d="M185.393,16.067h-6.712l-2.558,12.44c-0.09,0.391-0.155,0.733-0.199,1.025
	c-0.045,0.294-0.067,0.546-0.067,0.759c0,0.658,0.177,1.114,0.533,1.371c0.355,0.258,0.976,0.386,1.866,0.386
	c0.603,0,1.374-0.066,2.317-0.199c0.941-0.132,1.785-0.289,2.531-0.466l-1.04,5.247c-0.853,0.231-1.78,0.409-2.784,0.533
	c-1.003,0.125-1.949,0.187-2.837,0.187c-1.225,0-2.282-0.13-3.17-0.387c-0.888-0.257-1.62-0.626-2.197-1.105
	c-0.577-0.479-1.004-1.065-1.279-1.758c-0.275-0.693-0.414-1.473-0.414-2.343c0-0.302,0.019-0.661,0.054-1.08
	c0.034-0.417,0.114-0.918,0.239-1.505l2.718-13.106h-4.822l1.092-5.194h4.795l1.518-7.219h6.287l-1.491,7.219h6.713L185.393,16.067z
	"/>
<g>
	<path fill="#FFFFFF" d="M192.431,12.935c0,0.195-0.055,0.362-0.164,0.497c-0.107,0.137-0.275,0.238-0.501,0.303v0.009l0.834,1.154
		h-0.616l-0.764-1.087h-0.352v1.087h-0.515V12.09h0.854c0.142,0,0.273,0.009,0.395,0.024c0.123,0.016,0.227,0.04,0.313,0.072
		c0.166,0.063,0.294,0.156,0.382,0.28C192.386,12.592,192.431,12.748,192.431,12.935z M191.12,13.382
		c0.118,0,0.217-0.005,0.298-0.015c0.082-0.01,0.152-0.027,0.207-0.048c0.104-0.04,0.176-0.092,0.216-0.161
		c0.04-0.068,0.06-0.145,0.06-0.233c0-0.076-0.016-0.142-0.048-0.2c-0.03-0.058-0.086-0.104-0.16-0.137
		c-0.05-0.022-0.111-0.039-0.185-0.05c-0.074-0.01-0.166-0.016-0.274-0.016h-0.367v0.86H191.12z"/>
</g>
<circle fill="none" stroke="#FFFFFF" stroke-width="0.4272" stroke-miterlimit="10" cx="191.477" cy="13.496" r="2.523"/>
</svg>
