<svg id="Layer_1" data-name="Layer 1" xmlns="http://www.w3.org/2000/svg" viewBox="0 0 142.68 39.55"><defs><style>.cls-1{fill:#fff;}.cls-2{fill:#fbd611;}.cls-3{fill:#231f20;}.cls-4{fill:none;stroke:#fbd611;stroke-miterlimit:10;}</style></defs><title>Shopinizer Final</title><polygon class="cls-1" points="47.02 39.51 51.54 37.41 31.08 35.3 47.02 39.51"/><path class="cls-1" d="M324.12,302.11c-.32,0-.48-.16-.48-.5l.48-4.38a.53.53,0,0,1,.51-.5,9.54,9.54,0,0,0,4-1c.65-.47,1-1.4,1-2.8a20.44,20.44,0,0,0-1-5.46q-1-3.36-1.29-4.47a24.18,24.18,0,0,1-.93-5.84,9.92,9.92,0,0,1,.68-3.89,6.1,6.1,0,0,1,2-2.57,10.76,10.76,0,0,1,6.61-1.85.47.47,0,0,1,.53.53l-.53,4.34c0,.34-.21.53-.49.56-2.52.18-3.78,1-3.78,2.41A36.86,36.86,0,0,0,333,284.4a35.79,35.79,0,0,1,1.61,8.26Q334.6,302.11,324.12,302.11Z" transform="translate(-323.64 -268.81)"/><path class="cls-1" d="M344.85,269.34l-1.23,10.94a8.32,8.32,0,0,1,5.37-2.22q3.27,0,4.13,3.59a7.75,7.75,0,0,1,.24,1.84,13,13,0,0,1-.06,1.4l-1.87,16.35c-.06.32-.22.5-.49.52l-3.94.14c-.29,0-.43-.15-.43-.37l1.78-15.45c0-.34,0-.65,0-.92a2.6,2.6,0,0,0-.75-2.17,3,3,0,0,0-1.91-.58,6.52,6.52,0,0,0-2.41.49l-2.07,18.34c-.05.32-.21.5-.48.52l-3.94.14c-.29,0-.43-.15-.43-.37l3.62-32a.93.93,0,0,1,.13-.39.47.47,0,0,1,.36-.14l3.83-.14A.5.5,0,0,1,344.85,269.34Z" transform="translate(-323.64 -268.81)"/><path class="cls-1" d="M361.39,302a6,6,0,0,1-5.07-2.08,9.79,9.79,0,0,1-1.61-6.06,37.87,37.87,0,0,1,.41-4.84c.28-2,.53-3.43.76-4.34a14,14,0,0,1,1-2.65,7.59,7.59,0,0,1,1.52-2.14,7.19,7.19,0,0,1,5.23-1.87c3.12,0,5.14,1.15,6.06,3.43a11.78,11.78,0,0,1,.75,4.44,39.06,39.06,0,0,1-.4,5.4c-.27,1.86-.52,3.23-.75,4.12a14.64,14.64,0,0,1-1,2.62,7.55,7.55,0,0,1-1.51,2.11A7.47,7.47,0,0,1,361.39,302Zm3.45-8.55c.14-.69.33-2,.55-3.87a38.2,38.2,0,0,0,.34-4.2c0-2.22-.8-3.32-2.4-3.32a2.2,2.2,0,0,0-1.86,1.07,9.73,9.73,0,0,0-1.18,3.57,49.32,49.32,0,0,0-.9,8.23c0,2.11.8,3.16,2.38,3.16a2.23,2.23,0,0,0,1.89-1.08A9.37,9.37,0,0,0,364.84,293.49Z" transform="translate(-323.64 -268.81)"/><path class="cls-1" d="M370.13,307.83l3.63-29a.49.49,0,0,1,.49-.49l3.92-.13c.29,0,.43.16.43.41l-.39,2.59a8,8,0,0,1,2-2.36,3.81,3.81,0,0,1,2.4-.82,5,5,0,0,1,2.27.46,4.49,4.49,0,0,1,1.53,1.21,6.17,6.17,0,0,1,1,1.8,15.59,15.59,0,0,1,.68,5.12,29.77,29.77,0,0,1-.44,5.52c-.29,1.5-.55,2.65-.77,3.44a18.06,18.06,0,0,1-.89,2.43,8.88,8.88,0,0,1-1.25,2.08A4.8,4.8,0,0,1,380.9,302a4.42,4.42,0,0,1-3.12-.92,7.27,7.27,0,0,1-1.64-2.77L375,307.7a.46.46,0,0,1-.51.48l-3.82.14C370.31,308.31,370.13,308.15,370.13,307.83Zm13-20.62c0-3.1-.83-4.64-2.49-4.64a2.09,2.09,0,0,0-1.81,1,11.58,11.58,0,0,0-1.17,4.08,32.09,32.09,0,0,0-.5,4.42c0,.89,0,1.45,0,1.7s0,.56.08,1a3.69,3.69,0,0,0,.22,1,4.19,4.19,0,0,0,.41.82,1.73,1.73,0,0,0,1.63.86,2,2,0,0,0,1.79-1,7.92,7.92,0,0,0,1-2.71A30.7,30.7,0,0,0,383.12,287.21Z" transform="translate(-323.64 -268.81)"/><path class="cls-1" d="M396.16,278.74l-2.53,22.5a.91.91,0,0,1-.14.39.55.55,0,0,1-.37.13l-3.92.14c-.29,0-.43-.15-.43-.37l2.57-22.69a.53.53,0,0,1,.49-.47l3.81-.13C396,278.26,396.16,278.43,396.16,278.74Z" transform="translate(-323.64 -268.81)"/><path class="cls-1" d="M394,276.11a2.52,2.52,0,0,1-1.93-.76,2.7,2.7,0,0,1-.73-2,3,3,0,0,1,1-2.15,3,3,0,0,1,2.17-.94A2.59,2.59,0,0,1,397.2,273a2.86,2.86,0,0,1-1,2.14A3.09,3.09,0,0,1,394,276.11Z" transform="translate(-323.64 -268.81)"/><path class="cls-1" d="M403.84,278.74l-.22,1.8a8.38,8.38,0,0,1,5.39-2.48q3.27,0,4.13,3.59a7.75,7.75,0,0,1,.24,1.84,13,13,0,0,1-.06,1.4l-1.87,16.35c-.06.32-.22.5-.49.52l-3.94.14c-.29,0-.43-.15-.43-.37l1.77-15.45a8,8,0,0,0,.06-.92,2.6,2.6,0,0,0-.75-2.17,3,3,0,0,0-1.9-.58,6.47,6.47,0,0,0-2.4.49l-2.09,18.34c0,.32-.21.5-.49.52l-3.94.14c-.28,0-.43-.15-.43-.37L399,278.84a.52.52,0,0,1,.49-.47l3.82-.13C403.66,278.25,403.84,278.42,403.84,278.74Z" transform="translate(-323.64 -268.81)"/><path class="cls-1" d="M421.64,278.74l-2.54,22.5a.8.8,0,0,1-.14.39.51.51,0,0,1-.37.13l-3.92.14c-.28,0-.43-.15-.43-.37l2.58-22.69a.51.51,0,0,1,.48-.47l3.81-.13C421.46,278.26,421.64,278.43,421.64,278.74Z" transform="translate(-323.64 -268.81)"/><path class="cls-1" d="M419.47,276.11a2.52,2.52,0,0,1-1.93-.76,2.74,2.74,0,0,1-.72-2,3,3,0,0,1,1-2.15,3,3,0,0,1,2.18-.94,2.63,2.63,0,0,1,2,.76,2.66,2.66,0,0,1,.75,2,2.89,2.89,0,0,1-1,2.14A3.12,3.12,0,0,1,419.47,276.11Z" transform="translate(-323.64 -268.81)"/><path class="cls-1" d="M421,301.9c-.29,0-.43-.17-.43-.43a.54.54,0,0,1,0-.18l9.13-18.51-6.11.24c-.32,0-.48-.17-.48-.47l.41-3.71a.49.49,0,0,1,.52-.47L436,278c.35,0,.53.19.53.53L427.71,297l6.3-.31a.45.45,0,0,1,.49.51l-.45,3.7a.72.72,0,0,1-.14.39.47.47,0,0,1-.37.14Z" transform="translate(-323.64 -268.81)"/><path class="cls-1" d="M437,298.16a10.49,10.49,0,0,1-.62-2.3,22.87,22.87,0,0,1-.17-3.13,36,36,0,0,1,.43-4.92q1.43-9.75,8.86-9.75a5.23,5.23,0,0,1,4.39,2,8.17,8.17,0,0,1,1.52,5.11,46.82,46.82,0,0,1-.39,6.11.55.55,0,0,1-.6.54l-9.64.34c0,.19,0,.45,0,.78a6.81,6.81,0,0,0,.77,3.49,2.53,2.53,0,0,0,2.33,1.29,9,9,0,0,0,2.9-.46,8.43,8.43,0,0,1,1.57-.46.59.59,0,0,1,.41.16.51.51,0,0,1,.17.42l-.39,3.44a.7.7,0,0,1-.1.38,1,1,0,0,1-.35.18,16.11,16.11,0,0,1-4.54.69,8.79,8.79,0,0,1-3.4-.53,5.4,5.4,0,0,1-1.94-1.36A6.83,6.83,0,0,1,437,298.16Zm4.25-10.93-.18,1.25,5.09-.26a.72.72,0,0,0,.43-.11c.2-.2.29-.73.29-1.61a13.45,13.45,0,0,0-.08-1.86,5.55,5.55,0,0,0-.31-1.1,1.58,1.58,0,0,0-1.53-1.25,3.27,3.27,0,0,0-1.7.38Q441.88,283.52,441.26,287.23Z" transform="translate(-323.64 -268.81)"/><path class="cls-1" d="M465.3,283.21l-2.09-.21a8.28,8.28,0,0,0-4.25,1L457,301.22c-.06.32-.22.5-.49.52l-3.94.16c-.29,0-.43-.15-.43-.37l2.58-22.69a.51.51,0,0,1,.48-.47l3.81-.13c.35,0,.52.18.52.5l-.23,2a13.19,13.19,0,0,1,2.42-2,4.52,4.52,0,0,1,2.35-.71,11.64,11.64,0,0,1,1.8.1.47.47,0,0,1,.41.54,26.18,26.18,0,0,1-.45,4A.53.53,0,0,1,465.3,283.21Z" transform="translate(-323.64 -268.81)"/><path class="cls-2" d="M383.39,304.22c.24,0,.36,0,.39.06a.08.08,0,0,1,0,.05s-.19,1.16-.57,3.43l-.05.08h.67a1.11,1.11,0,0,1,.33,0s.07.07.07.16l0,.29h-1.64l.69-4.1Z" transform="translate(-323.64 -268.81)"/><path class="cls-2" d="M388.26,308.36a1,1,0,0,1-.59-.14.63.63,0,0,1-.16-.49c0-1.32.27-2.12.82-2.4a1,1,0,0,1,.49-.11.61.61,0,0,1,.44.14.58.58,0,0,1,.14.44,1.85,1.85,0,0,1-.11.62.78.78,0,0,1-.25.35.73.73,0,0,1-.45.13h-.53V307a2.39,2.39,0,0,0,0,.44,1.43,1.43,0,0,0,0,.25.31.31,0,0,0,0,.13.11.11,0,0,0,.08.09,1.31,1.31,0,0,0,.27,0,3.58,3.58,0,0,0,.69-.1l-.06.46A4.75,4.75,0,0,1,388.26,308.36Zm.27-1.85a.24.24,0,0,0,.21-.13.76.76,0,0,0,.14-.46c0-.16-.05-.25-.16-.25a.42.42,0,0,0-.38.18,1.3,1.3,0,0,0-.19.57l0,.09Z" transform="translate(-323.64 -268.81)"/><path class="cls-2" d="M392.39,308s.11-.77.33-2.23v0h-.23l.08-.46h.24v-.06l.06-.37a1.6,1.6,0,0,1,.4,0c.06,0,.09.07.09.16l-.05.19v.05h.52a.9.9,0,0,1-.11.38.46.46,0,0,1-.32.08h-.17v.06c-.21,1.33-.32,2-.32,2s0,.1.09.1h.49l-.06.41-.48,0C392.58,308.35,392.39,308.22,392.39,308Z" transform="translate(-323.64 -268.81)"/><path class="cls-2" d="M396.89,305.35a2.2,2.2,0,0,0,.25-.72.38.38,0,0,1,.12-.3.34.34,0,0,1,.26-.12.37.37,0,0,1,.25.08.32.32,0,0,1,.08.21,1.72,1.72,0,0,1-.34.61,2.51,2.51,0,0,1-.37.49l-.23-.16Z" transform="translate(-323.64 -268.81)"/><path class="cls-2" d="M401.39,307.31c0-.11-.15-.28-.44-.49a1.27,1.27,0,0,1-.3-.31.66.66,0,0,1-.14-.38.9.9,0,0,1,.22-.67,1,1,0,0,1,.67-.25l.63.08c0,.25-.14.39-.33.39l-.32,0c-.24,0-.37.13-.37.34s.15.34.45.57a1.56,1.56,0,0,1,.32.31.59.59,0,0,1,.14.39,1.65,1.65,0,0,1-.08.47,1,1,0,0,1-.3.44.72.72,0,0,1-.51.19l-.78-.07.06-.44.75,0c.1,0,.17-.06.23-.18A.71.71,0,0,0,401.39,307.31Z" transform="translate(-323.64 -268.81)"/><path class="cls-2" d="M409.66,308.36a1,1,0,0,1-.59-.14.63.63,0,0,1-.16-.49c0-1.32.27-2.12.82-2.4a1,1,0,0,1,.49-.11.61.61,0,0,1,.44.14.58.58,0,0,1,.14.44,1.85,1.85,0,0,1-.11.62.78.78,0,0,1-.25.35.73.73,0,0,1-.45.13h-.53V307a2.39,2.39,0,0,0,0,.44,1.43,1.43,0,0,0,0,.25.31.31,0,0,0,0,.13.11.11,0,0,0,.08.09,1.31,1.31,0,0,0,.27,0,3.58,3.58,0,0,0,.69-.1l-.06.46A4.75,4.75,0,0,1,409.66,308.36Zm.27-1.85a.24.24,0,0,0,.21-.13.77.77,0,0,0,.15-.46c0-.16-.06-.25-.17-.25a.43.43,0,0,0-.38.18,1.45,1.45,0,0,0-.19.57l0,.09Z" transform="translate(-323.64 -268.81)"/><path class="cls-2" d="M415.39,306.7H414l.07-.44h1.41Z" transform="translate(-323.64 -268.81)"/><path class="cls-2" d="M420,305.7l-.31,0c-.11,0-.21.08-.3.25a2.35,2.35,0,0,0-.19.6,6.07,6.07,0,0,0-.12,1,.81.81,0,0,0,.05.36.22.22,0,0,0,.19.07l.61-.06-.06.41-.59.1a.8.8,0,0,1-.56-.15.63.63,0,0,1-.16-.49,6,6,0,0,1,0-.72,6.8,6.8,0,0,1,.16-.81,1.76,1.76,0,0,1,.34-.7.71.71,0,0,1,.56-.28l.68.1C420.3,305.57,420.19,305.7,420,305.7Z" transform="translate(-323.64 -268.81)"/><path class="cls-2" d="M424.79,307.87a.85.85,0,0,1-.34.36,1.09,1.09,0,0,1-.57.13.74.74,0,0,1-.51-.15.77.77,0,0,1-.16-.55,5.49,5.49,0,0,1,.06-.8,4.3,4.3,0,0,1,.18-.79,1.4,1.4,0,0,1,.39-.62,1,1,0,0,1,.64-.23.85.85,0,0,1,.56.15.57.57,0,0,1,.16.43c0,.2,0,.37,0,.51s0,.32-.05.52a3,3,0,0,1-.13.57A2.86,2.86,0,0,1,424.79,307.87Zm-.79,0a.41.41,0,0,0,.35-.25,1.63,1.63,0,0,0,.21-.6,6.5,6.5,0,0,0,.11-1.09.3.3,0,0,0-.06-.23.28.28,0,0,0-.2-.07c-.15,0-.28.13-.39.4a3.92,3.92,0,0,0-.28,1.54.35.35,0,0,0,.06.23A.24.24,0,0,0,424,307.91Z" transform="translate(-323.64 -268.81)"/><path class="cls-2" d="M429.43,308.19l.35-2.31c0-.14-.07-.21-.22-.21l-.51.27v.1l-.38,2.28c-.28,0-.43,0-.46-.06s0,0,0-.06.16-1,.48-2.94h.27a.31.31,0,0,1,.13.06.29.29,0,0,1,.05.17v.05l.17-.13c.17-.13.27-.2.32-.2a1,1,0,0,1,.42.07c.1,0,.16.08.18.13a.43.43,0,0,1,.06.19.6.6,0,0,1,.26-.27.64.64,0,0,1,.31-.12,1.27,1.27,0,0,1,.55.09.31.31,0,0,1,.17.31s-.14.93-.41,2.7c-.28,0-.44,0-.47-.06a.08.08,0,0,1,0-.06q0-.33.36-2.37c0-.11-.08-.16-.23-.16a2.52,2.52,0,0,0-.5.26V306l-.38,2.28c-.28,0-.43,0-.46-.06A.12.12,0,0,1,429.43,308.19Z" transform="translate(-323.64 -268.81)"/><path class="cls-2" d="M435.83,308.19l.35-2.31a.19.19,0,0,0-.21-.21l-.51.27v.1l-.38,2.28c-.28,0-.44,0-.46-.06a.06.06,0,0,1,0-.06s.16-1,.49-2.94h.27l.12.06a.24.24,0,0,1,.06.17v.05l.17-.13a.83.83,0,0,1,.32-.2,1,1,0,0,1,.42.07c.1,0,.16.08.18.13a.19.19,0,1,0,.32-.08.61.61,0,0,1,.31-.12,1.19,1.19,0,0,1,.54.09.3.3,0,0,1,.17.31s-.13.93-.41,2.7c-.28,0-.43,0-.46-.06s0,0,0-.06q0-.33.36-2.37c0-.11-.08-.16-.23-.16a2.21,2.21,0,0,0-.51.26V306l-.37,2.28c-.28,0-.43,0-.46-.06A.08.08,0,0,1,435.83,308.19Z" transform="translate(-323.64 -268.81)"/><path class="cls-2" d="M441.78,308.36a1,1,0,0,1-.59-.14.63.63,0,0,1-.16-.49c0-1.32.27-2.12.82-2.4a1,1,0,0,1,.49-.11.61.61,0,0,1,.44.14.58.58,0,0,1,.14.44,1.85,1.85,0,0,1-.11.62.71.71,0,0,1-.25.35.73.73,0,0,1-.45.13h-.53V307a2.39,2.39,0,0,0,0,.44,1.43,1.43,0,0,0,0,.25.31.31,0,0,0,0,.13.11.11,0,0,0,.08.09,1.31,1.31,0,0,0,.27,0,3.76,3.76,0,0,0,.7-.1l-.07.46A4.75,4.75,0,0,1,441.78,308.36Zm.27-1.85a.25.25,0,0,0,.22-.13.83.83,0,0,0,.14-.46c0-.16-.06-.25-.17-.25a.43.43,0,0,0-.38.18,1.45,1.45,0,0,0-.19.57l0,.09Z" transform="translate(-323.64 -268.81)"/><path class="cls-2" d="M445.76,308.26a.08.08,0,0,1,0-.06s.16-1,.49-2.94a1.6,1.6,0,0,1,.4,0c.05,0,.08,0,.08.13v0a.75.75,0,0,1,.51-.24.72.72,0,0,1,.27.08.76.76,0,0,1-.1.32s-.14.05-.3.05a1.94,1.94,0,0,0-.49.32v.12l-.37,2.21C446,308.32,445.79,308.3,445.76,308.26Z" transform="translate(-323.64 -268.81)"/><path class="cls-2" d="M451.72,305.7l-.31,0c-.11,0-.21.08-.29.25a2,2,0,0,0-.2.6,6.07,6.07,0,0,0-.12,1,.65.65,0,0,0,.06.36c0,.05.09.07.18.07l.61-.06-.06.41-.59.1a.8.8,0,0,1-.56-.15.63.63,0,0,1-.16-.49,6.09,6.09,0,0,1,.05-.72,6.68,6.68,0,0,1,.15-.81,1.65,1.65,0,0,1,.35-.7.68.68,0,0,1,.55-.28l.69.1C452,305.57,451.9,305.7,451.72,305.7Z" transform="translate(-323.64 -268.81)"/><path class="cls-2" d="M455.67,308.36a1,1,0,0,1-.59-.14.63.63,0,0,1-.16-.49c0-1.32.27-2.12.82-2.4a1.06,1.06,0,0,1,.5-.11.6.6,0,0,1,.43.14.58.58,0,0,1,.14.44,2.1,2.1,0,0,1-.1.62.81.81,0,0,1-.26.35.73.73,0,0,1-.45.13h-.53V307a2.39,2.39,0,0,0,0,.44,1.43,1.43,0,0,0,0,.25.31.31,0,0,0,0,.13.11.11,0,0,0,.08.09,1.31,1.31,0,0,0,.27,0,3.76,3.76,0,0,0,.7-.1l-.07.46A4.63,4.63,0,0,1,455.67,308.36Zm.27-1.85a.25.25,0,0,0,.22-.13.83.83,0,0,0,.14-.46c0-.16-.06-.25-.17-.25a.43.43,0,0,0-.38.18,1.46,1.46,0,0,0-.18.57l0,.09Z" transform="translate(-323.64 -268.81)"/><path class="cls-2" d="M355.1,279.62s8.37-8.06,16.43,0v-7H355.1Z" transform="translate(-323.64 -268.81)"/><path class="cls-3" d="M359.91,271.3" transform="translate(-323.64 -268.81)"/><path class="cls-4" d="M365.88,272.46c0,1.52-1.23,1.75-2.74,1.75s-2.75-.23-2.75-1.75a2.75,2.75,0,0,1,5.49,0Z" transform="translate(-323.64 -268.81)"/></svg>